<svg width="33" height="33" viewBox="0 0 33 33" fill="none" xmlns="http://www.w3.org/2000/svg">
<path d="M16.6045 3.59009C13.2433 3.59015 10.0128 4.89205 7.59074 7.22261C5.16872 9.55317 3.74351 12.7312 3.61413 16.0899C3.48476 19.4487 4.6613 22.7269 6.89686 25.2369C9.13243 27.7468 12.2533 29.2934 15.6045 29.552V19.5902H12.6045C12.3393 19.5902 12.0849 19.4848 11.8974 19.2973C11.7098 19.1098 11.6045 18.8554 11.6045 18.5902C11.6045 18.325 11.7098 18.0706 11.8974 17.8831C12.0849 17.6956 12.3393 17.5902 12.6045 17.5902H15.6045V14.5902C15.6057 13.5297 16.0275 12.513 16.7774 11.7631C17.5273 11.0132 18.544 10.5914 19.6045 10.5902H21.6045C21.8697 10.5902 22.1241 10.6956 22.3116 10.8831C22.4991 11.0706 22.6045 11.325 22.6045 11.5902C22.6045 11.8554 22.4991 12.1098 22.3116 12.2973C22.1241 12.4848 21.8697 12.5902 21.6045 12.5902H19.6045C19.0742 12.5908 18.5659 12.8017 18.1909 13.1767C17.816 13.5516 17.6051 14.06 17.6045 14.5902V17.5902H20.6045C20.8697 17.5902 21.1241 17.6956 21.3116 17.8831C21.4991 18.0706 21.6045 18.325 21.6045 18.5902C21.6045 18.8554 21.4991 19.1098 21.3116 19.2973C21.1241 19.4848 20.8697 19.5902 20.6045 19.5902H17.6045V29.552C20.9557 29.2934 24.0765 27.7468 26.3121 25.2369C28.5476 22.7269 29.7242 19.4486 29.5948 16.0899C29.4654 12.7312 28.0402 9.55319 25.6182 7.22263C23.1962 4.89207 19.9657 3.59016 16.6045 3.59009V3.59009Z" fill="#222222"/>
</svg>
