<svg width="33" height="33" viewBox="0 0 33 33" fill="none" xmlns="http://www.w3.org/2000/svg">
<path d="M16.8306 28.0305C23.458 28.0305 28.8306 22.6579 28.8306 16.0305C28.8306 9.4031 23.458 4.03052 16.8306 4.03052C10.2031 4.03052 4.83057 9.4031 4.83057 16.0305C4.83057 22.6579 10.2031 28.0305 16.8306 28.0305Z" stroke="#222222" stroke-width="2" stroke-miterlimit="10"/>
<path d="M5.51392 12.0305H28.147" stroke="#222222" stroke-width="2" stroke-linecap="round" stroke-linejoin="round"/>
<path d="M5.5144 20.0305H28.1474" stroke="#222222" stroke-width="2" stroke-linecap="round" stroke-linejoin="round"/>
<path d="M16.8306 27.7084C19.592 27.7084 21.8306 22.48 21.8306 16.0305C21.8306 9.58102 19.592 4.35266 16.8306 4.35266C14.0691 4.35266 11.8306 9.58102 11.8306 16.0305C11.8306 22.48 14.0691 27.7084 16.8306 27.7084Z" stroke="#222222" stroke-width="2" stroke-miterlimit="10"/>
</svg>
