<svg width="33" height="33" viewBox="0 0 33 33" fill="none" xmlns="http://www.w3.org/2000/svg">
<path d="M16.6353 27.2421C16.6353 27.2421 4.13525 20.2421 4.13525 11.7421C4.13551 10.2397 4.65607 8.78387 5.60844 7.62197C6.5608 6.46007 7.88618 5.66388 9.35924 5.36875C10.8323 5.07362 12.3621 5.29778 13.6886 6.00312C15.015 6.70845 16.0563 7.85142 16.6353 9.2377L16.6352 9.23771C17.2142 7.85143 18.2555 6.70846 19.5819 6.00312C20.9084 5.29779 22.4382 5.07363 23.9113 5.36875C25.3843 5.66388 26.7097 6.46007 27.6621 7.62197C28.6144 8.78387 29.135 10.2397 29.1353 11.7421C29.1353 20.2421 16.6353 27.2421 16.6353 27.2421Z" stroke="#222222" stroke-width="2" stroke-linecap="round" stroke-linejoin="round"/>
</svg>
