<svg width="33" height="33" viewBox="0 0 33 33" fill="none" xmlns="http://www.w3.org/2000/svg">
<path d="M22.9478 4.90235C21.7836 4.90036 20.635 5.17004 19.5934 5.68997C18.5518 6.20989 17.6459 6.96571 16.9478 7.89729C16.0022 6.63922 14.685 5.71035 13.1825 5.24211C11.6799 4.77387 10.0682 4.78998 8.57538 5.28816C7.08252 5.78634 5.78412 6.74136 4.86392 8.01808C3.94371 9.2948 3.44829 10.8286 3.44775 12.4024C3.44775 21.3852 15.9279 28.4774 16.4591 28.7749C16.6084 28.8585 16.7766 28.9024 16.9478 28.9024C17.1189 28.9024 17.2871 28.8585 17.4364 28.7749C19.7317 27.4305 21.886 25.8587 23.8667 24.0831C28.2335 20.153 30.4478 16.223 30.4478 12.4024C30.4455 10.4139 29.6546 8.50758 28.2486 7.10154C26.8425 5.69551 24.9362 4.90461 22.9478 4.90235V4.90235Z" fill="#222222"/>
</svg>
