<svg width="33" height="33" viewBox="0 0 33 33" fill="none" xmlns="http://www.w3.org/2000/svg">
<path d="M12.1416 16.2329C13.1789 18.3536 14.8979 20.0648 17.0232 21.0924C17.1787 21.1661 17.3507 21.198 17.5223 21.185C17.6939 21.172 17.8592 21.1146 18.0018 21.0183L21.1313 18.9315C21.2697 18.8393 21.4289 18.783 21.5946 18.7677C21.7602 18.7525 21.9271 18.7789 22.08 18.8444L27.9346 21.3535C28.1335 21.438 28.2995 21.5848 28.4077 21.7719C28.5159 21.9589 28.5604 22.1761 28.5344 22.3906C28.3494 23.8386 27.6429 25.1695 26.5472 26.1341C25.4515 27.0987 24.0418 27.6309 22.582 27.631C18.0734 27.631 13.7493 25.8399 10.5612 22.6518C7.3731 19.4637 5.58203 15.1397 5.58203 10.631C5.58211 9.1712 6.11427 7.7615 7.07888 6.66583C8.04349 5.57016 9.3744 4.86366 10.8224 4.67861C11.0369 4.65265 11.2541 4.69711 11.4411 4.80528C11.6282 4.91346 11.775 5.0795 11.8595 5.27839L14.3708 11.1381C14.4358 11.2897 14.4622 11.455 14.4479 11.6192C14.4335 11.7835 14.3787 11.9417 14.2884 12.0797L12.2088 15.2571C12.1142 15.4001 12.0582 15.5651 12.0464 15.7361C12.0347 15.9072 12.0674 16.0783 12.1416 16.2329V16.2329Z" stroke="black" stroke-width="2" stroke-linecap="round" stroke-linejoin="round"/>
</svg>
