<svg width="33" height="33" viewBox="0 0 33 33" fill="none" xmlns="http://www.w3.org/2000/svg">
<path d="M16.168 17.876C18.3771 17.876 20.168 16.0851 20.168 13.876C20.168 11.6668 18.3771 9.87598 16.168 9.87598C13.9588 9.87598 12.168 11.6668 12.168 13.876C12.168 16.0851 13.9588 17.876 16.168 17.876Z" stroke="black" stroke-width="2" stroke-linecap="round" stroke-linejoin="round"/>
<path d="M26.168 13.876C26.168 22.876 16.168 29.876 16.168 29.876C16.168 29.876 6.16797 22.876 6.16797 13.876C6.16797 11.2238 7.22154 8.68027 9.0969 6.80491C10.9723 4.92954 13.5158 3.87598 16.168 3.87598C18.8201 3.87598 21.3637 4.92954 23.239 6.80491C25.1144 8.68027 26.168 11.2238 26.168 13.876V13.876Z" stroke="black" stroke-width="2" stroke-linecap="round" stroke-linejoin="round"/>
</svg>
