<svg width="33" height="33" viewBox="0 0 33 33" fill="none" xmlns="http://www.w3.org/2000/svg">
<path d="M29.5991 16.6177C29.5987 18.6316 29.1304 20.6179 28.2313 22.4199C27.3322 24.222 26.0267 25.7906 24.4179 27.002C22.8091 28.2135 20.9409 29.0347 18.9606 29.4009C16.9802 29.7671 14.9419 29.6683 13.0062 29.1123L14.2333 24.2042C15.2467 24.8199 16.4135 25.1366 17.5991 25.1177C22.0104 25.1177 25.5991 21.3046 25.5991 16.6177C25.5983 15.2905 25.3039 13.98 24.7372 12.78C24.1704 11.5799 23.3453 10.5201 22.3209 9.67634C21.2965 8.83261 20.0981 8.22588 18.8117 7.89961C17.5253 7.57335 16.1826 7.53562 14.8799 7.78913C13.5772 8.04264 12.3467 8.58112 11.2765 9.366C10.2064 10.1509 9.323 11.1627 8.68975 12.329C8.0565 13.4953 7.68903 14.7873 7.61366 16.1123C7.53829 17.4373 7.75689 18.7626 8.25379 19.9932C8.35331 20.239 8.54642 20.4352 8.79063 20.5387C9.03483 20.6422 9.31014 20.6444 9.55598 20.5449C9.80182 20.4453 9.99806 20.2522 10.1015 20.008C10.205 19.7638 10.2072 19.4885 10.1077 19.2427C9.72062 18.2853 9.55015 17.2542 9.60847 16.2232C9.66679 15.1922 9.95245 14.1869 10.445 13.2793C10.9375 12.3717 11.6248 11.5843 12.4574 10.9735C13.2901 10.3628 14.2475 9.94376 15.2611 9.74654C16.2748 9.54932 17.3195 9.57878 18.3204 9.8328C19.3213 10.0868 20.2536 10.5591 21.0505 11.2158C21.8474 11.8725 22.4892 12.6974 22.9298 13.6313C23.3704 14.5652 23.599 15.585 23.5991 16.6177C23.5991 20.2018 20.9075 23.1177 17.5991 23.1177C16.2878 23.1177 15.3765 22.6601 14.7553 22.1161L16.5693 14.8602C16.6336 14.6029 16.5931 14.3306 16.4566 14.1032C16.3202 13.8758 16.099 13.7119 15.8417 13.6475C15.5844 13.5832 15.3121 13.6237 15.0846 13.7602C14.8572 13.8966 14.6933 14.1178 14.629 14.3751L11.1214 28.4054C9.0078 27.4231 7.19716 25.8907 5.87906 23.9685C4.56097 22.0463 3.78391 19.8051 3.62924 17.4796C3.47458 15.154 3.948 12.8296 4.99994 10.7498C6.05188 8.67004 7.64365 6.91131 9.60856 5.65781C11.5735 4.40431 13.8393 3.70214 16.1687 3.62483C18.4981 3.54752 20.8054 4.09791 22.8491 5.21838C24.8929 6.33884 26.5977 7.98816 27.7852 9.99364C28.9728 11.9991 29.5993 14.287 29.5991 16.6177V16.6177Z" fill="#222222"/>
</svg>
