<svg width="33" height="33" viewBox="0 0 33 33" fill="none" xmlns="http://www.w3.org/2000/svg">
<path d="M30.9997 10.6727L27.2292 14.4433C26.4764 23.1784 19.1098 29.9656 10.2925 29.9656C8.477 29.9656 6.98078 29.6778 5.84534 29.11C4.92902 28.6519 4.55366 28.1601 4.46052 28.0203C4.37696 27.895 4.32279 27.7524 4.30207 27.6032C4.28135 27.454 4.2946 27.302 4.34084 27.1586C4.38708 27.0153 4.46511 26.8842 4.5691 26.7752C4.6731 26.6663 4.80037 26.5822 4.94141 26.5293C4.97358 26.5171 7.92243 25.3846 9.82831 23.2282C8.64285 22.3841 7.59949 21.3564 6.73749 20.1838C5.02399 17.8584 3.21174 13.8199 4.30866 7.78673C4.34131 7.60718 4.42247 7.43998 4.54334 7.30326C4.66422 7.16654 4.82021 7.0655 4.9944 7.01109C5.1686 6.95668 5.35436 6.95097 5.53156 6.99459C5.70877 7.03821 5.87066 7.12948 5.9997 7.25853C6.04377 7.30247 10.205 11.4049 15.2919 12.73L15.2925 11.9651C15.3033 10.3641 15.9494 8.83276 17.0887 7.70783C18.2281 6.58291 19.7675 5.95641 21.3686 5.96605C22.4087 5.98046 23.4273 6.26439 24.3249 6.79012C25.2225 7.31585 25.9684 8.06541 26.4897 8.96556L30.2925 8.96562C30.4903 8.96562 30.6837 9.02427 30.8481 9.13415C31.0126 9.24403 31.1407 9.4002 31.2164 9.58292C31.2921 9.76565 31.3119 9.96671 31.2734 10.1607C31.2348 10.3547 31.1395 10.5329 30.9997 10.6727Z" fill="#222222"/>
</svg>
