<svg width="267" height="140" viewBox="0 0 267 140" fill="none" xmlns="http://www.w3.org/2000/svg">
<path d="M53.7561 86.376H52.6041C51.7401 91.848 49.2921 110.136 40.9401 110.136H17.7561V23.592C17.7561 18.552 20.6361 14.232 25.9641 14.232H26.2521V13.08H0.0440627V14.232C5.94806 14.232 8.68406 18.408 8.68406 23.88V100.488C8.68406 105.24 6.38006 109.704 1.34006 110.136H0.0440627V111.288H52.3161L53.7561 86.376ZM71.0484 23.448C74.6484 23.448 77.8164 20.424 77.8164 16.68C77.8164 13.08 74.6484 10.056 71.0484 10.056C67.3044 10.056 64.2804 13.08 64.2804 16.68C64.2804 20.424 67.3044 23.448 71.0484 23.448ZM67.0164 100.488C67.0164 105.096 64.5684 109.848 59.5284 109.848V111H83.7204V109.848C78.6804 109.848 76.3764 105.384 76.0884 100.92V44.472H74.9364C73.2084 45.624 70.6164 46.488 67.0164 47.064C64.8564 47.352 62.2644 47.496 59.5284 47.496V48.792C64.1364 48.792 67.0164 51.24 67.0164 55.992V100.488ZM136.714 35.544C133.834 37.992 131.242 41.88 128.938 46.2C125.914 45.48 122.746 45.048 119.146 44.904H118.858C103.018 44.904 92.2176 54.552 92.2176 67.656C92.2176 75.432 96.1056 82.344 103.018 86.52C93.9456 91.416 89.4816 100.2 89.4816 107.688C89.4816 114.744 93.5136 120.792 101.434 121.368H102.73C106.33 121.368 108.778 120.36 110.938 118.776C116.698 114.168 121.45 105.384 130.954 105.384C131.818 105.384 132.538 105.384 133.402 105.528C139.162 106.248 141.466 111.864 141.466 117.768C141.466 120.648 140.89 123.672 139.882 126.264C137.146 133.176 129.946 137.928 121.738 137.928C120.874 137.928 119.866 137.928 118.858 137.784C112.522 136.344 108.922 131.016 108.922 125.256C108.922 123.816 109.21 122.232 109.642 120.792C108.922 121.224 109.354 120.936 108.634 121.368C108.346 122.664 108.202 123.96 108.202 125.4C108.202 130.584 110.362 136.344 115.834 138.216C116.698 138.648 117.85 138.936 118.858 139.08C120.586 139.368 122.17 139.512 123.754 139.512H124.762C136.858 138.648 146.794 129.576 148.378 117.768V115.32C148.378 107.256 145.066 102.216 140.026 99.912C136.858 98.472 133.546 97.752 130.522 97.752C125.338 97.752 120.586 99.48 116.842 102.216C108.634 107.976 105.61 118.2 99.5616 118.2C98.8416 118.2 98.1216 118.056 97.4016 117.768C93.8016 116.472 90.7776 111.288 90.4896 105.24C91.3536 97.896 96.2496 91.704 104.458 87.24C109.066 89.4 114.106 90.408 119.146 90.408C135.85 90.12 145.93 79.752 145.93 68.664L145.786 67.656C145.354 56.568 139.162 49.656 130.09 46.632C132.394 42.6 134.842 39.432 138.586 37.992C139.594 37.704 140.89 37.416 142.042 37.416C145.498 37.416 149.53 38.856 151.402 41.448V30.648H150.682C145.498 30.648 140.746 32.232 136.714 35.544ZM133.978 57.288C135.562 60.6 136.282 64.632 136.282 68.952C136.282 73.128 135.562 76.728 134.122 79.752C131.674 85.08 126.778 88.824 120.298 88.824C116.554 88.824 113.386 87.816 110.506 85.656C107.77 83.64 105.61 80.76 104.026 77.16C102.442 73.416 101.578 69.528 101.578 65.064C101.578 59.304 103.018 54.696 105.754 51.384C108.634 48.072 112.378 46.344 117.274 46.344C121.162 46.344 124.474 47.352 127.354 49.224C130.09 51.096 132.394 53.832 133.978 57.288ZM206.658 100.92C206.658 105.528 204.21 110.28 199.17 110.28V111.432H223.362V110.28H223.074C218.322 110.136 216.018 105.816 215.73 101.352V62.76C214.866 51.384 206.514 45.048 197.298 45.048H196.146C191.25 45.192 186.642 47.208 182.466 50.52C179.154 53.112 176.13 55.992 173.682 60.456V0.551997H172.53C168.93 3.144 161.442 3.57599 157.122 3.57599V4.72799C161.73 4.87199 164.61 7.32 164.61 12.072V100.92C164.61 105.528 162.162 110.28 157.122 110.28V111.432H181.314V110.28C176.274 110.28 173.97 105.816 173.682 101.352V61.896C176.706 57.432 180.45 53.112 185.49 50.808C188.658 49.512 191.826 48.648 194.85 48.648C197.586 48.648 200.034 49.368 202.05 50.664C206.226 53.544 206.658 59.016 206.658 64.056V100.92ZM265.986 102.648C264.546 106.248 260.946 108.696 256.914 108.696H256.626C246.978 108.264 245.682 102.504 245.394 94.152V46.344H260.658V45.048H245.394V33.384H244.386C243.522 38.424 240.93 42.744 235.17 44.472C233.73 44.76 232.146 44.904 230.706 44.904H229.122V46.344H229.986C234.162 46.344 236.322 47.352 236.322 50.664C236.322 66.792 236.466 82.92 236.466 99.048V99.336C236.466 104.52 240.066 108.552 245.394 110.28C247.41 111 249.714 111.288 252.306 111.288C259.65 111.144 264.978 107.832 266.994 103.512L265.986 102.648Z" fill="black"/>
</svg>
