<svg width="353" height="79" viewBox="0 0 353 79" fill="none" xmlns="http://www.w3.org/2000/svg">
<g clip-path="url(#clip0)">
<path d="M102 49.3H98V19.6H102V49.3Z" fill="#6A6A69"/>
<path d="M106.8 25.7C106 25.7 105.4 25.4 104.9 24.9C104.4 24.4 104.1 23.7 104.1 22.9C104.1 22.1 104.4 21.5 104.9 21C105.4 20.5 106.1 20.2 106.8 20.2C107.6 20.2 108.2 20.5 108.8 21C109.3 21.5 109.6 22.2 109.6 22.9C109.6 23.7 109.3 24.3 108.8 24.9C108.2 25.5 107.6 25.7 106.8 25.7ZM108.8 49.3H104.8V28.6H108.8V49.3Z" fill="#6A6A69"/>
<path d="M131 47.8V45.6H130.9C130.2 46.9 129.1 47.9 127.8 48.6C126.4 49.3 124.9 49.7 123.2 49.7C120.3 49.7 117.9 48.8 115.8 46.9C113.8 45 112.7 42.4 112.7 39C112.7 35.9 113.7 33.3 115.8 31.2C117.9 29.2 120.5 28.1 123.8 28.1C127.1 28.1 129.7 29.1 131.8 31.1C133.8 33.1 134.9 35.8 134.9 39.1V47.6C134.9 51.4 133.9 54.1 131.9 55.9C129.9 57.7 127.2 58.6 124 58.6C121.4 58.6 119.2 58 117.3 56.9C115.5 55.8 114.2 54 113.5 51.7H117.6C118.5 54 120.7 55.1 124 55.1C128.6 55.2 131 52.7 131 47.8ZM131 39C131 36.9 130.3 35.2 129 33.8C127.7 32.5 126 31.8 123.9 31.8C121.8 31.8 120.1 32.5 118.8 33.8C117.5 35.1 116.8 36.9 116.8 39C116.8 41.1 117.5 42.8 118.8 44.1C120.1 45.4 121.8 46 123.9 46C126 46 127.7 45.4 129 44.1C130.3 42.7 131 41.1 131 39Z" fill="#6A6A69"/>
<path d="M149.9 31.8C148 31.8 146.5 32.4 145.4 33.6C144.3 34.8 143.7 36.4 143.7 38.6V49.3H139.7V19.6H143.7V31.8H143.8C145.2 29.3 147.5 28 150.6 28C153.4 28 155.6 28.9 157.4 30.7C159.2 32.5 160.1 35.1 160.1 38.5V49.2H156.1V38.6C156.1 36.4 155.5 34.7 154.4 33.6C153.3 32.4 151.8 31.8 149.9 31.8Z" fill="#6A6A69"/>
<path d="M180.7 41V41.5C180.7 44.2 180 46.3 178.5 47.7C177 49.1 175 49.8 172.5 49.8C170 49.8 168 49.1 166.5 47.7C165 46.3 164.3 44.2 164.3 41.5V21.6H168.3V28.7H180.9V32.3H168.3V41.5C168.3 43.1 168.7 44.3 169.4 45C170.2 45.8 171.2 46.1 172.6 46.1C175.5 46.1 176.9 44.5 176.9 41.4V41H180.7Z" fill="#6A6A69"/>
<path d="M189.3 49C188.8 49.5 188.1 49.8 187.3 49.8C186.5 49.8 185.9 49.5 185.3 49C184.8 48.5 184.5 47.8 184.5 47C184.5 46.2 184.8 45.6 185.3 45C185.8 44.5 186.5 44.2 187.3 44.2C188.1 44.2 188.7 44.5 189.3 45C189.8 45.5 190.1 46.2 190.1 47C190.1 47.9 189.8 48.5 189.3 49Z" fill="#6A6A69"/>
<path d="M209.8 34H208.7C208.6 32.5 208 31.3 206.9 30.4C205.7 29.5 204.2 29.1 202.2 29.1C200.2 29.1 198.6 29.6 197.4 30.5C196.2 31.4 195.6 32.7 195.6 34.3C195.6 35.6 196.1 36.5 197.1 37.1C198.1 37.7 199.3 38.1 200.8 38.2C202.2 38.4 203.7 38.5 205.1 38.7C206.6 38.9 207.8 39.3 208.8 40.1C209.8 40.9 210.3 42 210.3 43.5C210.3 45.3 209.5 46.9 208 48C206.5 49.2 204.5 49.8 202 49.8C199.5 49.8 197.6 49.2 196.1 48.1C194.6 46.9 193.8 45.5 193.8 43.7H194.9C195 45.2 195.6 46.5 196.9 47.4C198.2 48.4 199.9 48.8 202 48.8C204.2 48.8 205.9 48.3 207.2 47.3C208.5 46.3 209.1 45 209.1 43.4C209.1 42.1 208.6 41.2 207.6 40.6C206.6 40 205.4 39.6 203.9 39.5C202.5 39.3 201 39.2 199.6 39C198.1 38.8 196.9 38.4 195.9 37.6C194.9 36.8 194.4 35.7 194.4 34.2C194.4 32.4 195.1 30.9 196.5 29.8C197.9 28.7 199.7 28.1 202.1 28.1C204.4 28.1 206.2 28.7 207.6 29.8C209 30.9 209.7 32.3 209.8 34Z" fill="#6A6A69"/>
<path d="M235.2 39.1H214.1C214.1 41.9 215.1 44.3 216.9 46.1C218.7 47.9 221.1 48.9 224.1 48.9C226.2 48.9 228 48.4 229.6 47.5C231.2 46.5 232.4 45.2 233.1 43.6H234.3C233.5 45.6 232.2 47.1 230.4 48.2C228.6 49.3 226.5 49.9 224.1 49.9C220.8 49.9 218.2 48.9 216.1 46.8C214 44.8 213 42.2 213 39C213 35.9 214 33.3 216.1 31.2C218.2 29.2 220.8 28.1 224.1 28.1C227.3 28.1 230 29.1 232.1 31.2C234.2 33.2 235.2 35.8 235.2 39.1ZM231.1 31.6C229.3 29.9 227 29.1 224.2 29.1C221.4 29.1 219.1 29.9 217.3 31.6C215.5 33.3 214.5 35.4 214.2 38H234.1C233.9 35.4 232.9 33.3 231.1 31.6Z" fill="#6A6A69"/>
<path d="M255.3 37H254.3V36.6C254.3 34.1 253.6 32.3 252.3 31C251 29.7 249.2 29.1 247 29.1C244.7 29.1 243 29.7 241.7 31C240.4 32.3 239.7 34.1 239.7 36.6V49.3H238.6V36.6C238.6 33.8 239.4 31.7 240.9 30.3C242.4 28.9 244.5 28.1 247 28.1C249.5 28.1 251.6 28.8 253.1 30.3C254.6 31.7 255.4 33.9 255.4 36.6V37H255.3Z" fill="#6A6A69"/>
<path d="M269.1 49.3H267.9L257.7 28.7H258.9L268.5 48.1H268.6L278.2 28.7H279.4L269.1 49.3Z" fill="#6A6A69"/>
<path d="M284 24.0001C283.7 24.3001 283.5 24.4001 283.2 24.4001C282.9 24.4001 282.6 24.3001 282.4 24.0001C282.1 23.7001 282 23.5001 282 23.2001C282 22.9001 282.1 22.6001 282.4 22.4001C282.7 22.1001 282.9 22.0001 283.2 22.0001C283.5 22.0001 283.8 22.1001 284 22.4001C284.3 22.7001 284.4 22.9001 284.4 23.2001C284.4 23.5001 284.3 23.8001 284 24.0001ZM283.8 49.3001H282.7V28.6001H283.8V49.3001Z" fill="#6A6A69"/>
<path d="M309.5 35.3H308.4C307.7 33.4 306.6 31.9 304.9 30.8C303.2 29.7 301.3 29.1 299 29.1C296 29.1 293.6 30 291.8 31.9C289.9 33.8 289 36.1 289 39C289 41.9 289.9 44.2 291.8 46.1C293.7 48 296.1 48.9 299 48.9C301.3 48.9 303.2 48.3 304.9 47.2C306.6 46.1 307.7 44.6 308.4 42.7H309.5C308.8 44.9 307.5 46.7 305.6 48C303.7 49.3 301.5 50 298.9 50C295.6 50 293 49 290.9 46.9C288.8 44.9 287.8 42.3 287.8 39.1C287.8 36 288.8 33.4 290.9 31.3C293 29.3 295.6 28.2 298.9 28.2C301.5 28.2 303.7 28.9 305.6 30.2C307.5 31.4 308.8 33.1 309.5 35.3Z" fill="#6A6A69"/>
<path d="M334.5 39.1H313.4C313.4 41.9 314.4 44.3 316.2 46.1C318 47.9 320.4 48.9 323.4 48.9C325.5 48.9 327.3 48.4 328.9 47.5C330.5 46.5 331.7 45.2 332.4 43.6H333.6C332.8 45.6 331.5 47.1 329.7 48.2C327.9 49.3 325.8 49.9 323.4 49.9C320.1 49.9 317.5 48.9 315.4 46.8C313.3 44.8 312.3 42.2 312.3 39C312.3 35.9 313.3 33.3 315.4 31.2C317.5 29.2 320.1 28.1 323.4 28.1C326.6 28.1 329.3 29.1 331.4 31.2C333.5 33.2 334.5 35.8 334.5 39.1ZM330.3 31.6C328.5 29.9 326.2 29.1 323.4 29.1C320.6 29.1 318.3 29.9 316.5 31.6C314.7 33.3 313.7 35.4 313.4 38H333.3C333.2 35.4 332.2 33.3 330.3 31.6Z" fill="#6A6A69"/>
<path d="M352.3 34H351.2C351.1 32.5 350.5 31.3 349.4 30.4C348.2 29.5 346.7 29.1 344.7 29.1C342.7 29.1 341.1 29.6 339.9 30.5C338.7 31.4 338.1 32.7 338.1 34.3C338.1 35.6 338.6 36.5 339.6 37.1C340.6 37.7 341.8 38.1 343.3 38.2C344.7 38.4 346.2 38.5 347.6 38.7C349.1 38.9 350.3 39.3 351.3 40.1C352.3 40.9 352.8 42 352.8 43.5C352.8 45.3 352 46.9 350.5 48C349 49.2 347 49.8 344.5 49.8C342 49.8 340.1 49.2 338.6 48.1C337.1 46.9 336.3 45.5 336.3 43.7H337.4C337.5 45.2 338.1 46.5 339.4 47.4C340.7 48.4 342.4 48.8 344.5 48.8C346.7 48.8 348.4 48.3 349.7 47.3C351 46.3 351.6 45 351.6 43.4C351.6 42.1 351.1 41.2 350.1 40.6C349.1 40 347.9 39.6 346.4 39.5C345 39.3 343.5 39.2 342.1 39C340.6 38.8 339.4 38.4 338.4 37.6C337.4 36.8 336.9 35.7 336.9 34.2C336.9 32.4 337.6 30.9 339 29.8C340.4 28.7 342.2 28.1 344.6 28.1C346.9 28.1 348.7 28.7 350.1 29.8C351.5 30.8 352.3 32.2 352.3 34Z" fill="#6A6A69"/>
<path d="M39.5997 2.10914e-05C17.5997 -0.199979 -0.200284 17.6 -0.000284084 39.6C0.199716 60.9 17.5997 78.3 38.8997 78.5C60.7997 78.7 78.5997 60.9 78.4997 38.9C78.2997 17.6 60.8997 0.200021 39.5997 2.10914e-05ZM39.1997 73.8C20.4997 73.8 5.29972 58.3 5.29972 39.2C5.29972 20.1 20.4997 4.60002 39.1997 4.60002C57.8997 4.60002 73.0997 20.1 73.0997 39.2C73.0997 58.3 57.8997 73.8 39.1997 73.8Z" fill="url(#paint0_linear)"/>
<path d="M41.2002 33.4C42.5002 29.7 43.7002 26 45.0002 22.3L47.0002 16.4C47.2002 15.8 46.4002 15.4 46.1002 15.9L32.2002 34.6H42.0002C41.4002 34.6 41.0002 34 41.2002 33.4Z" fill="url(#paint1_linear)"/>
<path d="M37.1999 45C35.8999 48.7 34.6999 52.4 33.3999 56.1C32.8999 57.7 31.9999 60.1 31.3999 62C31.1999 62.6 31.9999 63 32.2999 62.5L46.1999 43.8H36.2999C36.9999 43.8 37.3999 44.4 37.1999 45Z" fill="url(#paint2_linear)"/>
<path d="M50.1999 34.6H49.2999C46.8999 34.6 44.4999 34.6 42.0999 34.6H41.9999H32.1999L27.0999 41.4C26.3999 42.4 26.9999 43.7 28.1999 43.8H35.1999C35.5999 43.8 35.9999 43.8 36.3999 43.8H46.2999L51.3999 37C52.0999 36 51.3999 34.6 50.1999 34.6Z" fill="url(#paint3_linear)"/>
</g>
<defs>
<linearGradient id="paint0_linear" x1="-0.000284084" y1="39.2195" x2="78.4386" y2="39.2195" gradientUnits="userSpaceOnUse">
<stop stop-color="#FDC60D"/>
<stop offset="1" stop-color="#F28F3F"/>
</linearGradient>
<linearGradient id="paint1_linear" x1="43.6696" y1="21.9948" x2="36.9443" y2="34.8555" gradientUnits="userSpaceOnUse">
<stop stop-color="#FDC60D"/>
<stop offset="1" stop-color="#F28F3F"/>
</linearGradient>
<linearGradient id="paint2_linear" x1="33.5773" y1="54.5437" x2="41.8954" y2="43.0399" gradientUnits="userSpaceOnUse">
<stop stop-color="#FDC60D"/>
<stop offset="1" stop-color="#F28F3F"/>
</linearGradient>
<linearGradient id="paint3_linear" x1="20.4787" y1="33.1699" x2="58.5299" y2="45.4407" gradientUnits="userSpaceOnUse">
<stop stop-color="#FDC60D"/>
<stop offset="1" stop-color="#F28F3F"/>
</linearGradient>
<clipPath id="clip0">
<rect width="352.9" height="78.4" fill="white"/>
</clipPath>
</defs>
</svg>
