<svg width="33" height="33" viewBox="0 0 33 33" fill="none" xmlns="http://www.w3.org/2000/svg">
<path d="M16.8835 21.6665C19.645 21.6665 21.8835 19.4279 21.8835 16.6665C21.8835 13.9051 19.645 11.6665 16.8835 11.6665C14.1221 11.6665 11.8835 13.9051 11.8835 16.6665C11.8835 19.4279 14.1221 21.6665 16.8835 21.6665Z" stroke="#B4B4B4" stroke-width="2" stroke-miterlimit="10"/>
<path d="M22.3835 5.1665H11.3835C8.06984 5.1665 5.38354 7.8528 5.38354 11.1665V22.1665C5.38354 25.4802 8.06984 28.1665 11.3835 28.1665H22.3835C25.6973 28.1665 28.3835 25.4802 28.3835 22.1665V11.1665C28.3835 7.8528 25.6973 5.1665 22.3835 5.1665Z" stroke="#B4B4B4" stroke-width="2" stroke-linecap="round" stroke-linejoin="round"/>
<path d="M23.3835 11.6665C24.212 11.6665 24.8835 10.9949 24.8835 10.1665C24.8835 9.33808 24.212 8.6665 23.3835 8.6665C22.5551 8.6665 21.8835 9.33808 21.8835 10.1665C21.8835 10.9949 22.5551 11.6665 23.3835 11.6665Z" fill="#B4B4B4"/>
</svg>
