<svg width="33" height="33" viewBox="0 0 33 33" fill="none" xmlns="http://www.w3.org/2000/svg">
<path d="M27.4851 4.66693H6.48511C5.93282 4.66693 5.48511 5.11465 5.48511 5.66693V26.6669C5.48511 27.2192 5.93282 27.6669 6.48511 27.6669H27.4851C28.0374 27.6669 28.4851 27.2192 28.4851 26.6669V5.66693C28.4851 5.11465 28.0374 4.66693 27.4851 4.66693Z" stroke="#B4B4B4" stroke-width="2" stroke-linecap="round" stroke-linejoin="round"/>
<path d="M15.9851 14.1671V22.1671" stroke="#B4B4B4" stroke-width="2" stroke-linecap="round" stroke-linejoin="round"/>
<path d="M11.9851 14.1671V22.1671" stroke="#B4B4B4" stroke-width="2" stroke-linecap="round" stroke-linejoin="round"/>
<path d="M15.9851 17.6671C15.9851 16.7388 16.3539 15.8486 17.0102 15.1922C17.6666 14.5358 18.5568 14.1671 19.4851 14.1671C20.4134 14.1671 21.3036 14.5358 21.96 15.1922C22.6164 15.8486 22.9851 16.7388 22.9851 17.6671V22.1671" stroke="#B4B4B4" stroke-width="2" stroke-linecap="round" stroke-linejoin="round"/>
<path d="M11.9851 11.6669C12.8135 11.6669 13.4851 10.9954 13.4851 10.1669C13.4851 9.3385 12.8135 8.66693 11.9851 8.66693C11.1567 8.66693 10.4851 9.3385 10.4851 10.1669C10.4851 10.9954 11.1567 11.6669 11.9851 11.6669Z" fill="#B4B4B4"/>
</svg>
