<svg width="33" height="33" viewBox="0 0 33 33" fill="none" xmlns="http://www.w3.org/2000/svg">
<path d="M16.246 11.0917C16.2461 9.94287 16.6418 8.82914 17.3664 7.93771C18.0911 7.04629 19.1005 6.43154 20.2251 6.19681C21.3497 5.96209 22.5207 6.1217 23.5415 6.64883C24.5622 7.17595 25.3703 8.03843 25.83 9.09126L30.246 9.09131L26.2132 13.1241C25.9506 17.1803 24.1542 20.9846 21.1886 23.7644C18.2231 26.5442 14.3107 28.0912 10.246 28.0913C6.24604 28.0913 5.24604 26.5913 5.24604 26.5913C5.24604 26.5913 9.24604 25.0913 11.246 22.0913C11.246 22.0913 3.24604 18.0913 5.24604 7.09131C5.24604 7.09131 10.246 12.0913 16.2443 13.0913L16.246 11.0917Z" stroke="#B4B4B4" stroke-width="2" stroke-linecap="round" stroke-linejoin="round"/>
</svg>
