<svg width="33" height="33" viewBox="0 0 33 33" fill="none" xmlns="http://www.w3.org/2000/svg">
<path d="M20.574 16.1885L14.574 12.1885V20.1885L20.574 16.1885Z" stroke="#B4B4B4" stroke-width="2" stroke-linecap="round" stroke-linejoin="round"/>
<path d="M3.57397 16.1884C3.57397 19.9079 3.95824 22.0902 4.25036 23.2118C4.32844 23.5181 4.4784 23.8014 4.6878 24.0382C4.89719 24.275 5.16001 24.4586 5.45446 24.5736C9.63908 26.1817 16.574 26.1375 16.574 26.1375C16.574 26.1375 23.5088 26.1817 27.6934 24.5736C27.9879 24.4586 28.2507 24.2751 28.4601 24.0382C28.6695 23.8014 28.8195 23.5181 28.8976 23.2118C29.1897 22.0902 29.574 19.9079 29.574 16.1884C29.574 12.469 29.1897 10.2867 28.8976 9.16511C28.8195 8.85879 28.6696 8.57548 28.4602 8.33866C28.2508 8.10184 27.9879 7.91832 27.6935 7.80331C23.5089 6.19522 16.574 6.23938 16.574 6.23938C16.574 6.23938 9.63915 6.19522 5.4545 7.8033C5.16004 7.91831 4.89723 8.10182 4.68783 8.33864C4.47843 8.57546 4.32848 8.85877 4.25039 9.16509C3.95826 10.2867 3.57397 12.469 3.57397 16.1884Z" stroke="#B4B4B4" stroke-width="2" stroke-linecap="round" stroke-linejoin="round"/>
</svg>
